<?xml version="1.0" encoding="UTF-8"?>
<!DOCTYPE svg PUBLIC "-//W3C//DTD SVG 1.1//EN" "http://www.w3.org/Graphics/SVG/1.1/DTD/svg11.dtd">
<svg version="1.1" xmlns="http://www.w3.org/2000/svg" xmlns:xlink="http://www.w3.org/1999/xlink" x="0" y="0" width="792" height="200" viewBox="0, 0, 792, 200">
  <g id="Layer_1">
    <g>
      <g>
        <path d="M172,92.7 C172,81 181.5,71.5 193.2,71.5 C204.9,71.5 214.4,81 214.4,92.7 L214.4,143 C214.4,151 220.9,157.5 228.9,157.5 C236.9,157.5 243.4,151 243.4,143 L243.4,92.7 C243.4,65 220.9,42.5 193.2,42.5 C179.2,42.5 166.6,48.2 157.5,57.5 C166.5,66.6 172,79 172,92.7 L172,92.7 z" fill="#20D1CC"/>
        <path d="M143.1,92.7 C143.1,79 148.6,66.6 157.6,57.5 C148.5,48.3 135.9,42.5 121.9,42.5 C107.9,42.5 95.3,48.2 86.2,57.5 C95.1,66.5 100.6,78.9 100.7,92.6 C100.8,80.9 110.3,71.5 121.9,71.5 C133.6,71.5 143.1,81 143.1,92.7 L143.1,92.7 z" fill="#05D0E0"/>
        <path d="M172,143 L172,92.7 C172,79 166.5,66.6 157.5,57.5 C148.6,66.6 143,79 143,92.7 L143,143 C143,147 144.6,150.6 147.2,153.2 C149.8,155.8 153.4,157.4 157.4,157.4 C165.6,157.5 172,151 172,143 z" fill="#01A9B2"/>
        <path d="M50.5,42.5 C42.5,42.5 36,49 36,57 C36,65 42.5,71.5 50.5,71.5 C62.2,71.5 71.7,81 71.7,92.6 C71.7,78.9 77.2,66.6 86.2,57.5 C77.1,48.3 64.4,42.5 50.5,42.5 z" fill="#0282C9"/>
        <path d="M71.7,92.6 C71.7,92.6 71.7,92.7 71.7,92.7 L71.7,143 C71.7,151 78.2,157.5 86.2,157.5 C88.7,157.5 91,156.9 93.1,155.8 C97.6,153.4 100.7,148.6 100.7,143.1 L100.7,92.8 C100.7,92.8 100.7,92.7 100.7,92.7 C100.7,79 95.2,66.7 86.2,57.6 C77.2,66.5 71.7,78.9 71.7,92.6 z" fill="#016BB1"/>
      </g>
      <path d="M65,57 C65,65.008 58.508,71.5 50.5,71.5 C42.492,71.5 36,65.008 36,57 C36,48.992 42.492,42.5 50.5,42.5 C58.508,42.5 65,48.992 65,57 z" fill="#06429E"/>
      <path d="M100.7,143 C100.7,151.008 94.208,157.5 86.2,157.5 C78.192,157.5 71.7,151.008 71.7,143 C71.7,134.992 78.192,128.5 86.2,128.5 C94.208,128.5 100.7,134.992 100.7,143 z" fill="#01569A"/>
      <path d="M172.1,143 C172.1,151.008 165.608,157.5 157.6,157.5 C149.592,157.5 143.1,151.008 143.1,143 C143.1,134.992 149.592,128.5 157.6,128.5 C165.608,128.5 172.1,134.992 172.1,143 z" fill="#008C9D"/>
      <path d="M243.5,143 C243.5,151.008 237.008,157.5 229,157.5 C220.992,157.5 214.5,151.008 214.5,143 C214.5,134.992 220.992,128.5 229,128.5 C237.008,128.5 243.5,134.992 243.5,143 z" fill="#03ABA3"/>
    </g>
    <g>
      <path d="M324.1,87.4 C318.9,87.4 313.8,89.8 311.1,95.5 C309.2,89.6 304.6,87.4 298.7,87.4 C294.5,87.4 290,89.2 287.9,93.5 C287.9,93.5 287.9,91.2 287.9,91.2 C287.9,89.5 286.5,88.1 284.8,88.1 C283.1,88.1 281.7,89.5 281.7,91.2 C281.7,91.2 281.7,122.5 281.7,122.5 C281.7,124.2 283.1,125.6 284.8,125.6 C286.5,125.6 287.9,124.2 287.9,122.5 L287.9,122.5 L287.9,104 C287.9,98 291.8,93.2 297.8,93.2 C304.4,93.2 307.8,97.8 307.8,104 L307.8,122.6 L307.8,122.6 C307.8,124.3 309.2,125.6 310.8,125.6 C312.4,125.6 313.8,124.2 313.8,122.6 L313.8,104 C313.8,98 317.8,93.2 323.9,93.2 C330.5,93.2 333.5,97.6 333.5,103.8 L333.5,122.6 L333.5,122.6 C333.5,124.3 334.9,125.6 336.5,125.6 C338.2,125.6 339.5,124.2 339.5,122.6 L339.5,103.8 C339.6,93.8 334.4,87.4 324.1,87.4 z" fill="#06429E"/>
      <path d="M431.4,87.4 C426.2,87.4 421.1,89.8 418.4,95.5 C416.5,89.6 411.9,87.4 406,87.4 C401.8,87.4 397.3,89.2 395.2,93.5 C395.2,93.5 395.2,91.2 395.2,91.2 C395.2,89.5 393.8,88.1 392.1,88.1 C390.4,88.1 389,89.5 389,91.2 C389,91.2 389,122.5 389,122.5 C389,124.2 390.4,125.6 392.1,125.6 C393.8,125.6 395.2,124.2 395.2,122.5 L395.2,122.5 L395.2,104 C395.2,98 399.1,93.2 405.1,93.2 C411.7,93.2 415.1,97.8 415.1,104 L415.1,122.6 L415.1,122.6 C415.1,124.3 416.5,125.6 418.1,125.6 C419.8,125.6 421.1,124.2 421.1,122.6 L421.1,104 C421.1,98 425.1,93.2 431.2,93.2 C437.8,93.2 440.8,97.6 440.8,103.8 L440.8,122.6 L440.8,122.6 C440.8,124.3 442.2,125.6 443.8,125.6 C445.5,125.6 446.8,124.2 446.8,122.6 L446.8,103.8 C446.9,93.8 441.7,87.4 431.4,87.4 z" fill="#06429E"/>
      <path d="M380.1,108.9 C381.6,108.9 382.9,107.7 382.9,106.1 C382.9,93.2 374.8,87.2 364.3,87.2 C353.2,87.2 345.2,95.2 345.2,106.3 C345.2,118 353.2,125.6 364.6,125.6 C370,125.6 376.1,123.6 379.7,119.9 C380.3,119.3 380.5,118.7 380.5,118 C380.5,116.5 379.3,115.2 377.7,115.2 C376.9,115.2 376.2,115.5 375.7,116 C373.1,118.5 368.5,119.9 364.6,119.9 C357.5,119.9 351.9,115.6 351.2,108.8 L380.1,108.9 z M351.3,103.7 C352.3,96.6 357.9,92.7 364.4,92.7 C371.6,92.7 376.5,96.6 376.9,103.7 L351.3,103.7 z" fill="#06429E"/>
      <path d="M532.3,108.9 C533.8,108.9 535.1,107.7 535.1,106.1 C535.1,93.2 527,87.2 516.5,87.2 C505.4,87.2 497.4,95.2 497.4,106.3 C497.4,118 505.4,125.6 516.8,125.6 C522.2,125.6 528.3,123.6 531.9,119.9 C532.5,119.3 532.7,118.7 532.7,118 C532.7,116.5 531.5,115.2 529.9,115.2 C529.1,115.2 528.4,115.5 527.9,116 C525.3,118.5 520.7,119.9 516.8,119.9 C509.7,119.9 504.1,115.6 503.4,108.8 L532.3,108.9 z M503.5,103.7 C504.5,96.6 510.1,92.7 516.6,92.7 C523.8,92.7 528.7,96.6 529.1,103.7 L503.5,103.7 z" fill="#06429E"/>
      <path d="M680.8,108.9 C682.3,108.9 683.6,107.7 683.6,106.1 C683.6,93.2 675.5,87.2 665,87.2 C653.9,87.2 645.9,95.2 645.9,106.3 C645.9,118 653.9,125.6 665.3,125.6 C670.7,125.6 676.8,123.6 680.4,119.9 C680.9,119.3 681.2,118.7 681.2,118 C681.2,116.5 680,115.2 678.4,115.2 C677.6,115.2 676.9,115.5 676.4,116 C673.8,118.5 669.2,119.9 665.3,119.9 C658.2,119.9 652.6,115.6 651.9,108.8 L680.8,108.9 z M652,103.7 C653,96.6 658.6,92.7 665.1,92.7 C672.3,92.7 677.2,96.6 677.6,103.7 L652,103.7 z" fill="#06429E"/>
      <path d="M474.5,87.4 C469.3,87.4 463.3,89.7 460.8,94.7 L460.8,75.7 C460.8,74 459.4,72.6 457.7,72.6 C456,72.6 454.6,74 454.6,75.7 L454.6,122.5 C454.6,124.2 456,125.6 457.7,125.6 C459.4,125.6 460.8,124.2 460.8,122.5 L460.8,118.5 C463.6,123.4 469,125.5 474.5,125.5 C485.1,125.5 493.3,118.6 493.3,106.5 C493.3,94 485.1,87.4 474.5,87.4 z M474.1,119.8 C466.8,119.8 461.1,114.4 461.1,106.4 C461.1,98.5 466.9,93 474.1,93 C481.3,93 487.1,97.7 487.1,106.4 C487.1,114.9 481.2,119.8 474.1,119.8 z" fill="#06429E"/>
      <path d="M592.5,87.4 C587,87.4 581.6,89.6 578.8,94.4 L578.8,90.4 C578.8,88.7 577.5,87.3 575.8,87.3 C574.1,87.3 572.8,88.7 572.8,90.4 C572.8,90.4 572.8,137.8 572.8,139.4 C572.8,141 574.1,142.5 575.8,142.5 C577.5,142.5 578.8,141.1 578.8,139.4 C578.8,137.7 578.8,118.2 578.8,118.2 C581.3,123.2 587.4,125.5 592.5,125.5 C603,125.5 611.2,118.9 611.2,106.4 C611.3,94.2 603.1,87.4 592.5,87.4 z M592.1,119.9 C584.9,119.9 579.1,114.4 579.1,106.5 C579.1,98.5 584.8,93.1 592.1,93.1 C599.3,93.1 605.1,98 605.1,106.4 C605.1,115.2 599.3,119.9 592.1,119.9 z" fill="#06429E"/>
      <path d="M565.8,88.8 C563.7,87.8 561.7,87.3 559.3,87.3 C554.7,87.3 550.2,88.9 547.8,93 L547.8,90.3 C547.8,88.7 546.5,87.3 544.8,87.3 C543.1,87.3 541.8,88.6 541.8,90.3 C541.8,90.3 541.8,120.9 541.8,122.5 C541.8,124.2 543.2,125.6 544.9,125.6 C546.6,125.6 548,124.2 548,122.5 C548,120.8 548,104.3 548,104.3 C548,97.3 551.9,93.4 558.9,93.2 C560.6,93.2 562,93.5 563.4,94.2 C563.8,94.4 564.2,94.5 564.6,94.5 C566.3,94.5 567.6,93.2 567.6,91.5 C567.5,90.3 566.7,89.2 565.8,88.8 z" fill="#06429E"/>
      <path d="M642.2,88.8 C640.1,87.8 638.1,87.3 635.7,87.3 C631.1,87.3 626.6,88.9 624.2,93 L624.2,90.3 C624.2,88.7 622.9,87.3 621.2,87.3 C619.5,87.3 618.2,88.6 618.2,90.3 C618.2,90.3 618.2,120.9 618.2,122.5 C618.2,124.2 619.6,125.6 621.3,125.6 C623,125.6 624.4,124.2 624.4,122.5 C624.4,120.8 624.4,104.3 624.4,104.3 C624.4,97.3 628.3,93.4 635.3,93.2 C637,93.2 638.4,93.5 639.8,94.2 C640.2,94.4 640.6,94.5 641,94.5 C642.7,94.5 644,93.2 644,91.5 C643.9,90.3 643.1,89.2 642.2,88.8 z" fill="#06429E"/>
      <path d="M704.1,103.3 C699.5,102.8 694.9,101.8 694.8,98.1 C694.7,94.1 698.8,92.1 704,92.2 C706.2,92.2 710.3,92.7 712.3,93.8 L713.9,94.6 L713.9,94.6 C714.3,94.8 714.7,94.9 715.1,94.9 C716.7,94.9 717.9,93.6 717.9,92.1 C717.9,90.9 717.2,89.9 716.1,89.5 C715.5,89.3 714.9,89 714.3,88.8 C711,87.6 707.3,87 703.8,87 C696.7,86.9 688.6,90.2 688.7,98.1 C688.7,105.9 696.5,107.7 703.6,108.6 C709.3,109.2 713.9,110.4 713.8,114.5 C713.7,119.4 707.8,120.2 704.2,120.2 C700.9,120.2 697.4,119.4 694.4,117.9 L694.4,117.9 C694,117.7 693.5,117.6 693.1,117.6 C691.5,117.6 690.1,118.9 690.1,120.6 C690.1,121.8 690.8,122.8 691.8,123.3 L691.8,123.3 C691.8,123.3 691.8,123.3 691.9,123.3 C691.9,123.3 692,123.3 692,123.3 C695.8,125.1 699.5,125.9 704.1,125.9 C712.5,125.9 719.7,122.4 719.9,114.8 C720,105.4 710.9,104.2 704.1,103.3 z" fill="#06429E"/>
      <path d="M740.2,103.3 C735.6,102.8 731,101.8 730.9,98.1 C730.8,94.1 734.9,92.1 740.1,92.2 C742.3,92.2 746.4,92.7 748.4,93.8 L750,94.6 L750,94.6 C750.4,94.8 750.8,94.9 751.2,94.9 C752.8,94.9 754,93.6 754,92.1 C754,90.9 753.3,89.9 752.2,89.5 C751.6,89.3 751,89 750.4,88.8 C747.1,87.6 743.4,87 739.9,87 C732.8,86.9 724.7,90.2 724.8,98.1 C724.8,105.9 732.6,107.7 739.7,108.6 C745.4,109.2 750,110.4 749.9,114.5 C749.8,119.4 743.9,120.2 740.3,120.2 C737,120.2 733.5,119.4 730.5,117.9 L730.5,117.9 C730.1,117.7 729.6,117.6 729.2,117.6 C727.6,117.6 726.2,118.9 726.2,120.6 C726.2,121.8 726.9,122.8 727.9,123.3 L727.9,123.3 C727.9,123.3 727.9,123.3 728,123.3 C728,123.3 728.1,123.3 728.1,123.3 C731.9,125.1 735.6,125.9 740.2,125.9 C748.6,125.9 755.8,122.4 756,114.8 C756.1,105.4 747,104.2 740.2,103.3 z" fill="#06429E"/>
    </g>
  </g>
</svg>
